<svg width="36" height="36" viewBox="0 0 36 36" fill="none" xmlns="http://www.w3.org/2000/svg">
<path fill-rule="evenodd" clip-rule="evenodd" d="M35 18C35 27.3888 27.3888 35 18 35L18 22.25C20.3472 22.25 22.25 20.3472 22.25 18C22.25 15.6528 20.3472 13.75 18 13.75L18 0.999999C27.3888 1 35 8.61116 35 18Z" fill="#FF0000"/>
<path fill-rule="evenodd" clip-rule="evenodd" d="M-7.86805e-07 18C-1.22135e-06 27.9411 8.05887 36 18 36C27.9411 36 36 27.9411 36 18C36 8.05887 27.9411 -3.52265e-07 18 -7.86805e-07C8.05887 -1.22135e-06 -3.52265e-07 8.05887 -7.86805e-07 18ZM1.8 18C1.8 26.947 9.05298 34.2 18 34.2C26.947 34.2 34.2 26.947 34.2 18C34.2 9.05299 26.947 1.8 18 1.8C9.05299 1.8 1.8 9.05298 1.8 18Z" fill="#D9D9D9"/>
<rect x="18.9921" width="13.6063" height="1.98425" transform="rotate(90 18.9921 0)" fill="#D9D9D9"/>
<rect x="18.9921" y="22.3937" width="13.6063" height="1.98425" transform="rotate(90 18.9921 22.3937)" fill="#D9D9D9"/>
<path fill-rule="evenodd" clip-rule="evenodd" d="M12.6001 18C12.6001 20.9823 15.0177 23.4 18.0001 23.4C20.9824 23.4 23.4001 20.9823 23.4001 18C23.4001 15.0176 20.9824 12.6 18.0001 12.6C15.0177 12.6 12.6001 15.0176 12.6001 18ZM14.0401 17.9999C14.0401 20.187 15.813 21.9599 18.0001 21.9599C20.1871 21.9599 21.9601 20.187 21.9601 17.9999C21.9601 15.8129 20.1871 14.0399 18.0001 14.0399C15.813 14.0399 14.0401 15.8129 14.0401 17.9999Z" fill="#D9D9D9"/>
</svg>
