<svg width="36" height="36" viewBox="0 0 36 36" fill="none" xmlns="http://www.w3.org/2000/svg">
<path fill-rule="evenodd" clip-rule="evenodd" d="M18 36C27.9411 36 36 27.9411 36 18C36 8.05887 27.9411 0 18 0C8.05887 0 0 8.05887 0 18C0 27.9411 8.05887 36 18 36ZM18 34.2C26.947 34.2 34.2 26.947 34.2 18C34.2 9.05296 26.947 1.79997 18 1.79997C9.05296 1.79997 1.79997 9.05296 1.79997 18C1.79997 26.947 9.05296 34.2 18 34.2Z" fill="#D9D9D9"/>
<rect y="16.92" width="13.32" height="2.16" fill="#D9D9D9"/>
<rect x="22.32" y="16.92" width="13.32" height="2.16" fill="#D9D9D9"/>
<path fill-rule="evenodd" clip-rule="evenodd" d="M18 23.4C20.9823 23.4 23.4 20.9823 23.4 18C23.4 15.0176 20.9823 12.6 18 12.6C15.0176 12.6 12.6 15.0176 12.6 18C12.6 20.9823 15.0176 23.4 18 23.4ZM18 21.9599C20.1871 21.9599 21.96 20.187 21.96 17.9999C21.96 15.8129 20.1871 14.0399 18 14.0399C15.813 14.0399 14.04 15.8129 14.04 17.9999C14.04 20.187 15.813 21.9599 18 21.9599Z" fill="#D9D9D9"/>
</svg>
